<svg width="298" height="75" viewBox="0 0 298 75" fill="none" xmlns="http://www.w3.org/2000/svg">
<path d="M121.064 48.5H105.314V27.56H109.874V44.45H117.404V27.56H121.964V44.45H125.354V53H121.064V48.5ZM128.488 48.5V27.56H142.738V31.61H133.048V35.9H141.358V39.92H133.048V44.45H142.738V48.5H128.488ZM159.251 39.92H151.271V48.5H146.711V27.56H151.271V35.9H159.251V27.56H163.811V48.5H159.251V39.92ZM181.32 48.5L179.82 43.52H172.83L171.33 48.5H166.71L173.61 27.56H179.25L186.06 48.5H181.32ZM176.37 31.7H176.22L173.91 39.65H178.71L176.37 31.7ZM204.507 48.86C203.087 48.86 201.807 48.64 200.667 48.2C199.527 47.74 198.557 47.07 197.757 46.19C196.957 45.29 196.337 44.18 195.897 42.86C195.457 41.52 195.237 39.96 195.237 38.18C195.237 36.42 195.457 34.86 195.897 33.5C196.337 32.12 196.957 30.97 197.757 30.05C198.557 29.11 199.527 28.4 200.667 27.92C201.807 27.44 203.087 27.2 204.507 27.2C206.447 27.2 208.047 27.6 209.307 28.4C210.567 29.18 211.577 30.42 212.337 32.12L208.407 34.16C208.127 33.28 207.687 32.58 207.087 32.06C206.507 31.52 205.647 31.25 204.507 31.25C203.167 31.25 202.087 31.69 201.267 32.57C200.467 33.43 200.067 34.69 200.067 36.35V39.71C200.067 41.37 200.467 42.64 201.267 43.52C202.087 44.38 203.167 44.81 204.507 44.81C205.627 44.81 206.517 44.51 207.177 43.91C207.857 43.29 208.357 42.55 208.677 41.69L212.397 43.85C211.617 45.45 210.587 46.69 209.307 47.57C208.047 48.43 206.447 48.86 204.507 48.86ZM213.878 44.45H216.368C216.688 44.11 216.968 43.69 217.208 43.19C217.448 42.67 217.648 42.01 217.808 41.21C217.988 40.41 218.118 39.45 218.198 38.33C218.298 37.19 218.348 35.82 218.348 34.22V27.56H233.138V48.5H228.578V31.61H222.788V34.85C222.788 36.69 222.718 38.29 222.578 39.65C222.438 40.99 222.248 42.14 222.008 43.1C221.768 44.06 221.478 44.85 221.138 45.47C220.818 46.09 220.468 46.59 220.088 46.97C219.468 47.59 218.798 48.03 218.078 48.29C217.378 48.55 216.498 48.68 215.438 48.68H213.878V44.45ZM246.166 48.86C244.786 48.86 243.526 48.63 242.386 48.17C241.246 47.71 240.276 47.03 239.476 46.13C238.676 45.21 238.056 44.08 237.616 42.74C237.176 41.38 236.956 39.81 236.956 38.03C236.956 36.25 237.176 34.69 237.616 33.35C238.056 31.99 238.676 30.86 239.476 29.96C240.276 29.04 241.246 28.35 242.386 27.89C243.526 27.43 244.786 27.2 246.166 27.2C247.546 27.2 248.806 27.43 249.946 27.89C251.086 28.35 252.056 29.04 252.856 29.96C253.656 30.86 254.276 31.99 254.716 33.35C255.156 34.69 255.376 36.25 255.376 38.03C255.376 39.81 255.156 41.38 254.716 42.74C254.276 44.08 253.656 45.21 252.856 46.13C252.056 47.03 251.086 47.71 249.946 48.17C248.806 48.63 247.546 48.86 246.166 48.86ZM246.166 44.81C247.546 44.81 248.616 44.36 249.376 43.46C250.156 42.56 250.546 41.27 250.546 39.59V36.47C250.546 34.79 250.156 33.5 249.376 32.6C248.616 31.7 247.546 31.25 246.166 31.25C244.786 31.25 243.706 31.7 242.926 32.6C242.166 33.5 241.786 34.79 241.786 36.47V39.59C241.786 41.27 242.166 42.56 242.926 43.46C243.706 44.36 244.786 44.81 246.166 44.81ZM259.182 27.56H269.352C271.092 27.56 272.442 28.05 273.402 29.03C274.382 30.01 274.872 31.31 274.872 32.93C274.872 33.73 274.762 34.41 274.542 34.97C274.342 35.53 274.062 35.99 273.702 36.35C273.362 36.71 272.952 36.98 272.472 37.16C272.012 37.32 271.512 37.41 270.972 37.43V37.61C271.472 37.61 271.992 37.7 272.532 37.88C273.092 38.06 273.602 38.35 274.062 38.75C274.522 39.13 274.902 39.63 275.202 40.25C275.522 40.87 275.682 41.63 275.682 42.53C275.682 43.35 275.542 44.13 275.262 44.87C275.002 45.59 274.632 46.22 274.152 46.76C273.672 47.3 273.102 47.73 272.442 48.05C271.782 48.35 271.062 48.5 270.282 48.5H259.182V27.56ZM263.742 44.66H268.992C269.592 44.66 270.062 44.5 270.402 44.18C270.762 43.84 270.942 43.37 270.942 42.77V41.75C270.942 41.15 270.762 40.69 270.402 40.37C270.062 40.03 269.592 39.86 268.992 39.86H263.742V44.66ZM263.742 36.14H268.272C268.872 36.14 269.342 35.97 269.682 35.63C270.022 35.29 270.192 34.82 270.192 34.22V33.32C270.192 32.72 270.022 32.25 269.682 31.91C269.342 31.57 268.872 31.4 268.272 31.4H263.742V36.14ZM291.652 48.5L290.152 43.52H283.162L281.662 48.5H277.042L283.942 27.56H289.582L296.392 48.5H291.652ZM286.702 31.7H286.552L284.242 39.65H289.042L286.702 31.7Z" fill="white"/>
<circle cx="37.5" cy="37.5" r="35.5" fill="#17234F" stroke="white" stroke-width="4"/>
<path d="M19.7898 27.2694V47.7305L37.5 57.9611V37.5L19.7898 27.2694Z" fill="white"/>
<path d="M37.5 17.0389L28.6335 22.1542L46.3665 32.3847V52.8459L55.2103 47.7306V27.2694L37.5 17.0389Z" fill="#2E5894"/>
</svg>
